HIERARCHY
ROOT root
{
	OFFSET 0.000000 0.000000 0.000000
	CHANNELS 6 Xposition Yposition Zposition Zrotation Yrotation Xrotation
	JOINT lhip
	{
		OFFSET 0.058581 -0.082280 -0.017664
		CHANNELS 3 Zrotation Yrotation Xrotation
		JOINT lknee
		{
			OFFSET 0.043451 -0.386469 0.008037
			CHANNELS 3 Zrotation Yrotation Xrotation
			JOINT lankle
			{
				OFFSET -0.014790 -0.426874 -0.037428
				CHANNELS 3 Zrotation Yrotation Xrotation
				JOINT ltoe
				{
					OFFSET 0.041054 -0.060286 0.122042
					CHANNELS 3 Zrotation Yrotation Xrotation
					End Site
					{
						OFFSET 0.000000 0.000000 0.000000
					}
				}
			}
		}
	}
	JOINT rhip
	{
		OFFSET -0.060310 -0.090513 -0.013543
		CHANNELS 3 Zrotation Yrotation Xrotation
		JOINT rknee
		{
			OFFSET -0.043257 -0.383688 -0.004843
			CHANNELS 3 Zrotation Yrotation Xrotation
			JOINT rankle
			{
				OFFSET 0.019056 -0.420046 -0.034562
				CHANNELS 3 Zrotation Yrotation Xrotation
				JOINT rtoe
				{
					OFFSET -0.034840 -0.062106 0.130323
					CHANNELS 3 Zrotation Yrotation Xrotation
					End Site
					{
						OFFSET 0.000000 0.000000 0.000000
					}
				}
			}
		}
	}
	JOINT lowerback
	{
		OFFSET 0.004439 0.124404 -0.038385
		CHANNELS 3 Zrotation Yrotation Xrotation
		JOINT upperback
		{
			OFFSET 0.004488 0.137956 0.026820
			CHANNELS 3 Zrotation Yrotation Xrotation
			JOINT chest
			{
				OFFSET -0.002265 0.056032 0.002855
				CHANNELS 3 Zrotation Yrotation Xrotation
				JOINT lowerneck
				{
					OFFSET -0.013390 0.211636 -0.033468
					CHANNELS 3 Zrotation Yrotation Xrotation
					JOINT upperneck
					{
						OFFSET 0.010113 0.088937 0.050410
						CHANNELS 3 Zrotation Yrotation Xrotation
						End Site
						{
							OFFSET 0.000000 0.000000 0.000000
						}
					}
				}
				JOINT lclavicle
				{
					OFFSET 0.071702 0.114000 -0.018898
					CHANNELS 3 Zrotation Yrotation Xrotation
					JOINT lshoulder
					{
						OFFSET 0.122921 0.045205 -0.019046
						CHANNELS 3 Zrotation Yrotation Xrotation
						JOINT lelbow
						{
							OFFSET 0.255332 -0.015649 -0.022946
							CHANNELS 3 Zrotation Yrotation Xrotation
							JOINT lwrist
							{
								OFFSET 0.265709 0.012698 -0.007375
								CHANNELS 3 Zrotation Yrotation Xrotation
								End Site
								{
									OFFSET 0.000000 0.000000 0.000000
								}
							}
						}
					}
				}
				JOINT rclavicle
				{
					OFFSET -0.082954 0.112472 -0.023707
					CHANNELS 3 Zrotation Yrotation Xrotation
					JOINT rshoulder
					{
						OFFSET -0.113228 0.046853 -0.008472
						CHANNELS 3 Zrotation Yrotation Xrotation
						JOINT relbow
						{
							OFFSET -0.260127 -0.014369 -0.031269
							CHANNELS 3 Zrotation Yrotation Xrotation
							JOINT rwrist
							{
								OFFSET -0.269108 0.006794 -0.006027
								CHANNELS 3 Zrotation Yrotation Xrotation
								End Site
								{
									OFFSET 0.000000 0.000000 0.000000
								}
							}
						}
					}
				}
			}
		}
	}
}
MOTION
Frames: 13
Frame Time: 0.033333
-1.271907 1.773476 0.983031 66.417642 -0.780229 85.020007 -2.994787 2.060100 5.034318 -3.417293 -4.978714 8.511989 5.284249 13.918291 -12.975891 0.000000 -0.000000 0.000000 -1.916467 -2.369808 -4.374252 -2.514218 -6.869150 48.903290 2.681715 -16.483168 -2.746438 0.000000 -0.000000 0.000000 -2.263504 -0.891582 12.049957 1.071414 -2.230413 -2.857903 -0.717872 -1.549541 2.483682 -1.094701 1.675845 -1.530281 -1.849870 0.478516 4.710392 -22.289637 -0.275224 3.501547 -41.208550 -5.021083 10.027246 -7.719738 -28.810193 17.171424 0.834556 -11.571718 -2.742896 25.222720 2.144742 1.969319 52.107132 -5.303911 18.520326 -0.565840 22.285323 9.046498 4.415291 6.665676 -1.012405 
-1.246614 1.769341 0.984676 70.126220 -0.311275 85.265892 -2.503014 2.165956 7.372944 -3.242045 -7.371251 6.344764 4.218064 13.483306 -13.123596 0.000000 -0.000000 0.000000 -0.504263 -1.860840 -9.052636 -3.634938 -8.276998 48.703458 2.251812 -16.834808 -5.978344 0.000000 -0.000000 0.000000 -1.693997 -2.533505 12.333209 1.040282 -2.367200 -2.940462 -0.706399 -1.894719 2.352899 -1.140252 1.121747 -1.915038 -1.079735 -0.823059 4.155812 -21.942345 -0.816945 3.603917 -40.608770 -5.802781 10.559538 -6.904713 -34.454392 16.044292 2.740469 -12.083791 -5.608225 24.918988 2.140926 2.204077 52.478158 -6.403798 18.851517 0.264454 23.724230 11.200615 5.133998 6.583601 -1.555359 
-1.220602 1.765075 0.985009 73.584630 0.034926 85.413241 -1.993976 2.283886 9.823774 -2.992857 -10.659091 4.626562 3.935766 12.613020 -12.626512 0.000000 -0.000000 0.000000 -0.052997 -0.675717 -12.823182 -2.819313 -9.394848 45.454331 3.164268 -16.462486 -7.857783 0.000000 -0.000000 0.000000 -1.346535 -3.963225 12.557503 1.202097 -2.097713 -2.834152 -0.506612 -2.511639 2.319589 -0.821355 1.146910 -2.874581 -0.793680 -1.510895 3.908312 -21.645803 -0.699116 3.786274 -40.729784 -7.536867 11.143200 -5.682482 -39.957679 15.968396 3.225780 -12.066268 -8.017712 24.828739 1.664790 2.191978 52.021910 -7.131375 19.343361 1.654093 25.723389 13.751190 5.072706 6.760065 -1.799142 
-1.188189 1.758123 0.983367 76.802904 0.400180 85.670747 -1.046271 2.811890 12.512850 -2.599131 -12.488768 2.767292 2.860053 11.792623 -13.857075 0.000000 -0.000000 0.000000 0.148159 0.942117 -16.659052 -1.960804 -9.834420 37.942922 3.451800 -16.264347 -9.763993 0.000000 -0.000000 0.000000 -1.005634 -5.025157 12.778411 1.397139 -1.551391 -2.462022 -0.202308 -2.971967 2.238907 -0.874268 0.056911 -3.523547 -0.378282 -3.176486 2.779959 -21.024959 -0.859400 3.954744 -41.103384 -9.784269 12.195508 -4.832857 -46.687688 16.212255 4.837102 -12.358291 -10.266330 24.799871 1.255089 2.239537 51.896571 -7.596438 19.649398 2.465009 28.354116 14.565865 4.701746 6.997907 -2.679513 
-1.167469 1.752497 0.982038 78.560307 0.944705 85.350989 -0.029432 2.779300 14.606171 -2.503479 -13.035900 2.039540 2.239622 11.692055 -14.149580 0.000000 -0.000000 0.000000 0.618500 1.349045 -17.440703 -1.984475 -10.132712 31.765406 3.979851 -15.624741 -9.946552 0.000000 -0.000000 0.000000 -0.429464 -5.654573 13.600159 1.441799 -1.535715 -2.470398 0.025621 -3.112125 1.966814 -0.801064 0.029289 -4.247370 0.037677 -3.615165 2.962389 -20.623868 -0.963155 4.022503 -41.702602 -10.447341 12.622884 -4.136333 -50.809238 16.376597 4.361050 -12.658067 -11.566571 24.514753 1.441135 2.511656 52.237969 -7.861340 19.649843 2.359441 29.800365 14.955331 4.772513 7.072292 -3.177329 
-1.140122 1.745177 0.978069 80.502208 0.834578 85.953668 0.408027 3.458000 15.884794 -2.240703 -13.385255 1.626180 1.745575 10.836857 -15.095981 0.000000 -0.000000 0.000000 0.301184 1.268102 -19.294118 -2.041111 -10.604734 22.935878 4.878356 -14.592647 -9.099183 0.000000 -0.000000 0.000000 -0.329503 -6.116311 13.227082 1.498554 -1.510923 -2.413034 0.451286 -3.268527 1.996849 -0.817262 -0.608680 -3.830256 0.029689 -4.111906 1.935565 -20.114182 -0.719637 3.862706 -42.758225 -11.777003 13.743803 -3.957196 -55.336857 17.712492 6.969419 -12.968055 -13.204558 23.805694 1.056259 2.555766 52.685934 -7.099040 19.789457 2.997373 31.029589 15.500917 3.130702 7.064441 -3.816099 
-1.111644 1.736809 0.973339 81.693611 0.713232 86.687292 0.989554 3.898944 17.022365 -2.142224 -13.800442 1.487511 1.119265 9.935141 -15.537205 0.000000 -0.000000 0.000000 0.156646 0.743001 -20.748514 -1.598422 -10.589580 13.909829 5.481842 -13.651386 -7.365218 0.000000 -0.000000 0.000000 -0.119933 -6.223416 12.756081 1.468240 -1.422237 -2.493514 0.720340 -3.254931 1.733757 -0.898084 -1.160342 -3.595903 0.396621 -4.771263 2.129642 -19.671516 -0.513304 3.974789 -44.183531 -12.408345 14.562000 -3.174791 -59.257964 18.854618 6.981400 -13.120639 -14.472593 23.434063 0.930585 2.816734 52.761100 -6.732362 19.857295 3.204743 32.575169 15.964396 2.747733 6.746311 -4.386288 
-1.081428 1.726982 0.968496 83.102929 0.290862 87.411721 1.634475 4.072588 17.771880 -2.397683 -14.953249 2.367675 0.503036 8.931194 -15.544261 0.000000 -0.000000 0.000000 -0.040511 -0.240027 -21.327726 -1.377959 -9.835391 5.383346 6.438438 -11.759671 -4.634241 0.000000 -0.000000 0.000000 -0.173257 -5.876538 11.765498 1.425009 -1.558750 -1.943509 0.847557 -3.472981 1.642290 -0.946045 -1.665752 -3.595646 1.030135 -5.493294 2.050747 -19.364094 -0.428105 4.112174 -44.816029 -13.244382 15.466561 -4.558932 -62.294591 20.620237 7.710884 -13.030396 -15.284128 23.623024 0.399355 2.450825 52.573871 -5.993586 19.820190 3.378501 33.641225 16.313021 2.528584 6.727549 -4.646413 
-1.048833 1.715933 0.964288 84.252091 -0.035459 87.708615 2.434122 3.772349 18.973673 -2.893809 -16.089785 3.659647 -0.210301 7.783230 -15.102189 0.000000 -0.000000 0.000000 -0.198774 -0.726395 -22.024081 -1.485499 -9.797693 2.342919 6.875641 -11.723466 -3.877989 0.000000 -0.000000 0.000000 -0.148261 -5.849095 11.352891 1.512445 -1.534736 -1.918250 0.862376 -3.591356 1.520524 -0.677644 -2.123225 -3.388835 0.826910 -6.298229 2.715225 -19.264491 -0.239140 4.400220 -45.502985 -13.559596 16.286949 -6.545298 -63.774602 23.715750 8.385648 -13.356058 -16.403156 23.760535 0.535074 2.720596 52.510425 -5.315452 19.878515 2.936403 34.340902 15.744572 1.628950 6.809014 -4.821506 
-1.004039 1.700176 0.960295 85.767346 -0.301514 87.257987 3.466632 3.522903 20.444702 -3.342087 -18.128112 7.111712 -1.613928 7.273112 -13.432205 0.000000 -0.000000 0.000000 -0.748086 -0.675476 -22.968849 -1.245541 -11.019910 7.819646 5.573285 -12.706227 -4.051253 0.000000 -0.000000 0.000000 -0.227946 -6.461578 11.288010 1.810917 -1.323116 -1.123951 0.815114 -3.445819 1.234435 -0.496690 -2.687339 -3.368793 0.558748 -7.126240 3.069947 -19.595705 -0.130882 4.576792 -46.082291 -12.847744 16.799284 -9.234856 -64.492443 27.104836 7.523205 -13.165433 -16.392899 23.862943 1.159320 2.817144 52.502416 -4.918480 19.427678 1.827560 35.215609 14.517272 1.637002 6.656168 -5.089987 
-0.966009 1.686022 0.958466 86.519652 -0.391339 87.053895 4.337552 3.201523 20.787251 -4.138159 -18.805622 11.314515 -3.125595 6.397140 -10.691198 0.000000 -0.000000 0.000000 -0.831805 -0.315628 -23.633690 -1.853989 -12.392877 13.860868 3.299347 -13.957372 -1.952750 0.000000 -0.000000 0.000000 0.040556 -6.714713 10.758020 2.076747 -0.854186 -0.368976 0.686292 -3.463858 0.967115 -0.721145 -3.373743 -2.857707 0.422574 -6.927333 2.876692 -20.040660 -0.522719 5.185848 -46.528843 -12.025438 17.202606 -10.730348 -62.817048 28.745136 8.328031 -13.035209 -16.112771 24.036865 1.688382 2.873937 52.125271 -4.792286 19.240641 1.185820 35.725173 13.767700 0.803552 6.614538 -5.853191 
-0.924867 1.670238 0.958422 87.340433 -0.177146 86.527123 5.430673 2.882575 20.272476 -5.463395 -19.160966 17.558174 -4.374615 6.130352 -6.055224 0.000000 -0.000000 0.000000 -1.062674 -0.108270 -23.933528 -1.189141 -12.077417 20.235519 1.795532 -13.958010 -2.430898 0.000000 -0.000000 0.000000 0.242428 -7.151216 10.377851 2.697775 -0.709767 0.167411 0.578949 -3.304539 0.747443 -0.618481 -3.556515 -2.345346 -0.257380 -7.051255 3.534204 -20.962932 -0.121810 5.454221 -46.542046 -10.971548 17.416230 -13.891712 -59.099678 30.807267 6.272683 -12.950490 -15.583738 24.593168 1.787863 3.153034 51.008315 -4.033649 18.902597 1.267399 35.442565 13.140434 0.069293 6.701130 -5.752943 
-0.882978 1.652752 0.959822 87.638076 0.050924 85.561983 6.260107 2.702717 18.175904 -6.895585 -16.852149 26.568273 -5.907940 5.844670 2.062566 0.000000 -0.000000 0.000000 -0.485382 0.542741 -22.324692 -0.647920 -12.059980 24.395584 -1.431569 -14.527898 -5.531868 0.000000 -0.000000 0.000000 0.179446 -6.927809 10.555747 3.212579 -0.778717 0.501255 0.722448 -3.332555 0.575400 -0.737369 -3.455354 -1.999912 -0.335401 -6.576121 4.296011 -21.416742 0.135455 5.853575 -48.383891 -9.285724 16.965179 -12.179908 -54.719009 29.277532 5.076112 -12.171479 -14.044297 25.060366 2.312279 3.618570 49.899246 -3.428989 18.213180 1.207850 34.983785 13.475124 0.903563 6.678220 -6.390606 
